<svg width="86" height="39" viewBox="0 0 86 39" fill="none" xmlns="http://www.w3.org/2000/svg">
<path d="M83.5166 19.5L67.0963 21.937L75.3493 31.3003L60.0817 26.4013L59.8182 37.2486L48.9372 28.8383L42.8052 39L36.6731 28.8383L25.7921 37.2486L25.5287 26.4013L10.2611 31.3003L18.514 21.937L2.09375 19.5L18.514 17.063L10.2611 7.69968L25.5287 12.5987L25.7921 1.75145L36.6731 10.1617L42.8052 0L48.9372 10.1617L59.8182 1.75145L60.0817 12.5987L75.3493 7.69968L67.0963 17.063L83.5166 19.5Z" fill="#4039E9"/>
<path d="M85.9989 13.3413V15.7927H82.5014V26.3413H79.9477V15.7927H76.4688V13.3413H85.9989Z" fill="white"/>
<path d="M71.5799 13.3413C72.8259 13.3413 73.8745 13.7623 74.7257 14.6042C75.577 15.4461 76.0026 16.4799 76.0026 17.7056C76.0026 18.9313 75.577 19.9651 74.7257 20.807C73.8745 21.6489 72.8259 22.0699 71.5799 22.0699H69.3037V26.3413H66.75V13.3413H71.5799ZM71.5799 19.6742C72.1227 19.6742 72.573 19.4885 72.9307 19.117C73.2885 18.7332 73.4674 18.2627 73.4674 17.7056C73.4674 17.1361 73.2885 16.6656 72.9307 16.2942C72.573 15.9227 72.1227 15.737 71.5799 15.737H69.3037V19.6742H71.5799Z" fill="white"/>
<path d="M64.9341 19.3584V20.3613C64.9341 22.2184 64.342 23.7227 63.1576 24.8742C61.9733 26.0256 60.4435 26.6013 58.5684 26.6013C56.5698 26.6013 54.9105 25.9513 53.5905 24.6513C52.2828 23.3389 51.6289 21.7418 51.6289 19.8599C51.6289 17.9656 52.2766 16.3623 53.572 15.0499C54.8797 13.7375 56.4958 13.0813 58.4203 13.0813C59.6293 13.0813 60.7335 13.3599 61.7327 13.917C62.732 14.4618 63.5092 15.1923 64.0644 16.1084L61.8808 17.3713C61.5724 16.8389 61.1036 16.4056 60.4744 16.0713C59.8576 15.737 59.1667 15.5699 58.4018 15.5699C57.1681 15.5699 56.1503 15.9784 55.3485 16.7956C54.5589 17.6003 54.1641 18.6218 54.1641 19.8599C54.1641 21.0856 54.5651 22.1008 55.367 22.9056C56.1812 23.698 57.2545 24.0942 58.5869 24.0942C59.5738 24.0942 60.388 23.8775 61.0295 23.4442C61.6834 22.9984 62.1275 22.3918 62.3619 21.6242H58.4388V19.3584H64.9341Z" fill="white"/>
<path d="M46.1708 13.3413V15.7927H42.6733V26.3413H40.1196V15.7927H36.6406V13.3413H46.1708Z" fill="white"/>
<path d="M34.5059 26.3413L33.7287 24.0013H28.5657L27.7885 26.3413H25.0312L29.565 13.3413H32.7294L37.2817 26.3413H34.5059ZM29.38 21.6056H32.933L31.1565 16.2942L29.38 21.6056Z" fill="white"/>
<path d="M21.2401 13.3413H23.7753V26.3413H21.2401V20.9556H16.4287V26.3413H13.875V13.3413H16.4287V18.5042H21.2401V13.3413Z" fill="white"/>
<path d="M6.73589 26.6013C4.78668 26.6013 3.17673 25.9513 1.90604 24.6513C0.635345 23.3513 0 21.748 0 19.8413C0 17.9223 0.635345 16.3189 1.90604 15.0313C3.17673 13.7313 4.78668 13.0813 6.73589 13.0813C7.90789 13.0813 8.98736 13.3599 9.9743 13.917C10.9736 14.4618 11.7508 15.2046 12.306 16.1456L10.1038 17.427C9.78308 16.8451 9.32662 16.3932 8.73445 16.0713C8.14229 15.737 7.4761 15.5699 6.73589 15.5699C5.47754 15.5699 4.45975 15.9661 3.68253 16.7584C2.91765 17.5508 2.53521 18.5784 2.53521 19.8413C2.53521 21.0918 2.91765 22.1132 3.68253 22.9056C4.45975 23.698 5.47754 24.0942 6.73589 24.0942C7.4761 24.0942 8.14229 23.9332 8.73445 23.6113C9.33895 23.277 9.79542 22.8251 10.1038 22.2556L12.306 23.537C11.7508 24.478 10.9797 25.227 9.99281 25.7842C9.00586 26.3289 7.92022 26.6013 6.73589 26.6013Z" fill="white"/>
</svg>
