<svg width="93" height="42" viewBox="0 0 93 42" fill="none" xmlns="http://www.w3.org/2000/svg">
<path d="M90.3159 21L72.5591 23.6244L81.4838 33.708L64.9735 28.4322L64.6886 40.1138L52.922 31.0566L46.2908 42L39.6596 31.0566L27.893 40.1138L27.608 28.4322L11.0977 33.708L20.0224 23.6244L2.26562 21L20.0224 18.3756L11.0977 8.29196L27.608 13.5678L27.893 1.88618L39.6596 10.9434L46.2908 0L52.922 10.9434L64.6886 1.88618L64.9735 13.5678L81.4838 8.29196L72.5591 18.3756L90.3159 21Z" fill="#4039E9"/>
<path d="M93.0012 14V16.64H89.219V28H86.4575V16.64H82.6953V14H93.0012Z" fill="white"/>
<path d="M77.4105 14C78.7579 14 79.8919 14.4533 80.8124 15.36C81.7329 16.2667 82.1932 17.38 82.1932 18.7C82.1932 20.02 81.7329 21.1333 80.8124 22.04C79.8919 22.9467 78.7579 23.4 77.4105 23.4H74.9491V28H72.1875V14H77.4105ZM77.4105 20.82C77.9975 20.82 78.4844 20.62 78.8713 20.22C79.2582 19.8067 79.4516 19.3 79.4516 18.7C79.4516 18.0867 79.2582 17.58 78.8713 17.18C78.4844 16.78 77.9975 16.58 77.4105 16.58H74.9491V20.82H77.4105Z" fill="white"/>
<path d="M70.2203 20.48V21.56C70.2203 23.56 69.5799 25.18 68.2992 26.42C67.0184 27.66 65.3641 28.28 63.3363 28.28C61.1751 28.28 59.3807 27.58 57.9532 26.18C56.5391 24.7666 55.832 23.0466 55.832 21.02C55.832 18.98 56.5324 17.2533 57.9332 15.84C59.3474 14.4266 61.095 13.72 63.1762 13.72C64.4836 13.72 65.6777 14.02 66.7583 14.62C67.8389 15.2066 68.6794 15.9933 69.2797 16.98L66.9184 18.34C66.5848 17.7666 66.0779 17.3 65.3975 16.94C64.7304 16.58 63.9834 16.4 63.1562 16.4C61.8221 16.4 60.7215 16.84 59.8543 17.72C59.0005 18.5866 58.5736 19.6866 58.5736 21.02C58.5736 22.34 59.0072 23.4333 59.8743 24.3C60.7548 25.1533 61.9155 25.58 63.3563 25.58C64.4236 25.58 65.3041 25.3466 65.9978 24.88C66.7049 24.4 67.1852 23.7466 67.4387 22.92H63.1962V20.48H70.2203Z" fill="white"/>
<path d="M49.9309 14V16.64H46.1487V28H43.3872V16.64H39.625V14H49.9309Z" fill="white"/>
<path d="M37.3162 28L36.4757 25.48H30.8925L30.052 28H27.0703L31.9731 14H35.3951L40.3179 28H37.3162ZM31.773 22.9H35.6152L33.6941 17.18L31.773 22.9Z" fill="white"/>
<path d="M22.9685 14H25.71V28H22.9685V22.2H17.7655V28H15.0039V14H17.7655V19.56H22.9685V14Z" fill="white"/>
<path d="M7.28416 28.28C5.17629 28.28 3.4353 27.58 2.06118 26.18C0.687059 24.78 0 23.0533 0 21C0 18.9333 0.687059 17.2066 2.06118 15.82C3.4353 14.42 5.17629 13.72 7.28416 13.72C8.55155 13.72 9.71889 14.02 10.7862 14.62C11.8668 15.2066 12.7073 16.0066 13.3076 17.02L10.9262 18.4C10.5794 17.7733 10.0858 17.2866 9.4454 16.94C8.80503 16.58 8.08462 16.4 7.28416 16.4C5.92338 16.4 4.82276 16.8266 3.98228 17.68C3.15514 18.5333 2.74157 19.64 2.74157 21C2.74157 22.3466 3.15514 23.4466 3.98228 24.3C4.82276 25.1533 5.92338 25.58 7.28416 25.58C8.08462 25.58 8.80503 25.4066 9.4454 25.06C10.0991 24.7 10.5927 24.2133 10.9262 23.6L13.3076 24.98C12.7073 25.9933 11.8735 26.8 10.8062 27.4C9.7389 27.9866 8.56489 28.28 7.28416 28.28Z" fill="white"/>
</svg>
